<svg width="25" height="22" viewBox="0 0 25 22" fill="none" xmlns="http://www.w3.org/2000/svg">
<g clip-path="url(#clip0_8_43)">
<path d="M3.32696 16.6308C4.21864 17.2528 5.66433 17.2528 6.55604 16.6308C7.44767 16.0088 7.44767 15.0004 6.55604 14.3785C5.66433 13.7565 4.21864 13.7565 3.32696 14.3785C2.43528 15.0004 2.43528 16.0088 3.32696 16.6308Z" fill="#25CAAC"/>
<path d="M12.5818 8.18463C13.9194 9.11754 16.0879 9.11754 17.4254 8.18463C18.7629 7.25165 18.7629 5.73908 17.4254 4.80615C16.0879 3.87321 13.9194 3.87321 12.5818 4.80615C11.2444 5.73908 11.2444 7.25165 12.5818 8.18463Z" fill="#25CAAC"/>
<path d="M7.66895 12.4077C8.78354 13.1851 10.5907 13.1851 11.7053 12.4077C12.8198 11.6302 12.8198 10.3697 11.7053 9.59227C10.5907 8.81486 8.78354 8.81486 7.66895 9.59227C6.55436 10.3697 6.55436 11.6302 7.66895 12.4077Z" fill="#25CAAC"/>
<path d="M0.501568 11.8446C1.17032 12.3111 2.25459 12.3111 2.92335 11.8446C3.59211 11.3782 3.59211 10.6219 2.92335 10.1554C2.25459 9.68893 1.17032 9.68893 0.501568 10.1554C-0.16719 10.6219 -0.167189 11.3782 0.501568 11.8446Z" fill="#25CAAC"/>
<path d="M7.66895 3.39847C8.78354 4.17591 10.5907 4.17591 11.7053 3.39847C12.8198 2.62102 12.8198 1.36053 11.7053 0.583086C10.5907 -0.194362 8.78354 -0.194362 7.66895 0.583086C6.55436 1.36053 6.55436 2.62102 7.66895 3.39847Z" fill="#25CAAC"/>
<path d="M3.32696 7.62155C4.21864 8.24351 5.66433 8.24351 6.55603 7.62155C7.44767 6.99958 7.44767 5.99117 6.55603 5.36924C5.66433 4.74728 4.21864 4.74728 3.32696 5.36924C2.43528 5.99117 2.43529 6.99958 3.32696 7.62155Z" fill="#25CAAC"/>
<path d="M7.66895 21.417C8.78354 22.1944 10.5907 22.1944 11.7053 21.417C12.8198 20.6395 12.8198 19.379 11.7053 18.6016C10.5907 17.8241 8.78354 17.8241 7.66895 18.6016C6.55436 19.379 6.55436 20.6395 7.66895 21.417Z" fill="#25CAAC"/>
<path d="M18.4691 12.6893C19.8066 13.6222 21.9752 13.6222 23.3126 12.6893C24.6502 11.7563 24.6502 10.2437 23.3126 9.31081C21.9752 8.37784 19.8066 8.37784 18.4691 9.31081C17.1316 10.2437 17.1316 11.7563 18.4691 12.6893Z" fill="#25CAAC"/>
<path d="M12.5818 17.1938C13.9194 18.1268 16.0879 18.1268 17.4254 17.1938C18.7629 16.2609 18.7629 14.7483 17.4254 13.8153C16.0879 12.8824 13.9194 12.8824 12.5818 13.8153C11.2444 14.7483 11.2444 16.2609 12.5818 17.1938Z" fill="#25CAAC"/>
</g>
<defs>
<clipPath id="clip0_8_43">
<rect width="24.3158" height="22" fill="white"/>
</clipPath>
</defs>
</svg>
